<svg data-v-0dd9719b="" version="1.0" xmlns="http://www.w3.org/2000/svg" xmlns:xlink="http://www.w3.org/1999/xlink" width="100%" height="100%" viewBox="0 0 340.000000 250.000000" preserveAspectRatio="xMidYMid meet" color-interpolation-filters="sRGB" style="margin: auto;"> <rect data-v-0dd9719b="" x="0" y="0" width="100%" height="100%" fill="#fff" fill-opacity="0" class="background"></rect> <rect data-v-0dd9719b="" x="0" y="0" width="100%" height="100%" fill="url(#watermark)" fill-opacity="1" class="watermarklayer"></rect> <g data-v-0dd9719b="" fill="#333" class="icon-text-wrapper icon-svg-group iconsvg" transform="translate(98.9949951171875,90.57698822021484)"><g class="iconsvg-imagesvg" transform="translate(0,0)"><g><rect fill="#333" fill-opacity="0" stroke-width="2" x="0" y="0" width="60.00000000000001" height="68.84602586315705" class="image-rect"></rect> <svg x="0" y="0" width="60.00000000000001" height="68.84602586315705" filtersec="colorsb9415777707" class="image-svg-svg primary" style="overflow: visible;"><svg xmlns="http://www.w3.org/2000/svg" viewBox="-0.012277687899768353 0.013120384886860847 157.43695068359375 180.6476593017578"><path d="M78.73 90.51V148.47c0 2 .19 2.17 1.62 1.34 7.77-4.46 15.53-9 23.32-13.43a2.37 2.37 0 0 0 1.23-2.38c.14-8.13.19-16.26 0-24.39-.1-4.21 0-4.22 3.65-2.12q10.35 5.94 20.68 11.91c1.61.93 1.77.86 1.78-1q.09-12.87.13-25.75c0-2.17.17-2.29 2-1.23 7.58 4.35 15.15 8.73 22.75 13.07a2.59 2.59 0 0 1 1.47 2.55q-.09 13.47 0 27a2.38 2.38 0 0 1-1.37 2.41q-29.64 17-59.25 34.13c-5.62 3.24-11.26 6.44-16.87 9.71a2 2 0 0 1-2.32 0q-13.11-7.59-26.25-15.11-24.78-14.27-49.6-28.5a2.94 2.94 0 0 1-1.7-2.94c.06-8.64 0-17.29 0-25.93 0-2.3.09-2.37 2-1.24q20.09 11.58 40.15 23.2c2.88 1.66 5.76 3.33 8.65 5 1.37.79 1.58.66 1.62-.95V75.13l26.33 15.18a.2.2 0 0 0-.02.2z" fill="#1fa2d8"></path><path d="M78.73 90.51a.2.2 0 0 1 0-.2V32.53c0-.77.37-1.89-.22-2.24-.76-.46-1.51.49-2.22.89-7.45 4.25-14.86 8.55-22.29 12.76a2.77 2.77 0 0 0-1.6 2.82v26.1c0 2.06-.1 2.11-1.92 1.06q-11.09-6.37-22.17-12.75c-.56-.32-1.17-1-1.81-.61s-.28 1.25-.28 1.9v25.76c0 1.79-.2 1.9-1.77 1Q12.86 82.49 1.3 75.79A2.23 2.23 0 0 1 0 73.62V46.51a2.35 2.35 0 0 1 1.3-2.32c6.76-3.86 13.48-7.79 20.22-11.68q13.58-7.83 27.15-15.64C58 11.48 67.34 6.12 76.63.67a3.59 3.59 0 0 1 4.14 0q24.72 14.4 49.5 28.67c8.54 4.94 17.07 9.9 25.64 14.79a2.55 2.55 0 0 1 1.46 2.56v26.1c0 .59.27 1.37-.39 1.71s-1.13-.32-1.65-.62l-42-24.1c-2.15-1.24-4.29-2.48-6.43-3.75-.54-.31-1.14-.87-1.67-.62-.71.34-.35 1.21-.35 1.85V103.52c.08 1.39-.46 1.58-1.59.92-3-1.77-6.06-3.5-9.08-5.25-4.55-2.62-9.09-5.25-13.64-7.85a16.92 16.92 0 0 0-1.84-.83z" fill="#38bdf3"></path></svg></svg> <!----></g></g> <g transform="translate(67,12.908012390136719)"><g data-gra="path-name" fill-rule="" class="tp-name iconsvg-namesvg"><g transform="scale(1)"><g><path d="M10.14-38.35L36.34-38.35 36.34-43.03 5.27-43.03 5.27 0 10.14 0 10.14-18.66 33.48-18.66 33.48-23.4 10.14-23.4ZM80.28-43.03L75.4-43.03 75.4-6.83 48.82-43.03 43.16-43.03 43.16 0 48.04 0 48.04-36.34 74.62 0 80.28 0Z" transform="translate(-5.269999980926514, 43.029998779296875)"></path></g> <!----> <!----> <!----> <!----> <!----> <!----> <!----></g></g> <!----></g></g><defs v-gra="od"></defs></svg>